<?xml version="1.0" standalone="no"?><svg xmlns="http://www.w3.org/2000/svg" viewBox="0 0 1440 320"><path fill="#e7008a" fill-opacity="1" d="M0,256L7.5,256C15,256,30,256,45,218.7C60,181,75,107,90,101.3C105,96,120,160,135,176C150,192,165,160,180,128C195,96,210,64,225,48C240,32,255,32,270,26.7C285,21,300,11,315,16C330,21,345,43,360,74.7C375,107,390,149,405,176C420,203,435,213,450,202.7C465,192,480,160,495,149.3C510,139,525,149,540,149.3C555,149,570,139,585,122.7C600,107,615,85,630,117.3C645,149,660,235,675,250.7C690,267,705,213,720,202.7C735,192,750,224,765,224C780,224,795,192,810,165.3C825,139,840,117,855,138.7C870,160,885,224,900,208C915,192,930,96,945,58.7C960,21,975,43,990,48C1005,53,1020,43,1035,48C1050,53,1065,75,1080,69.3C1095,64,1110,32,1125,64C1140,96,1155,192,1170,213.3C1185,235,1200,181,1215,181.3C1230,181,1245,235,1260,218.7C1275,203,1290,117,1305,101.3C1320,85,1335,139,1350,144C1365,149,1380,107,1395,112C1410,117,1425,171,1433,197.3L1440,224L1440,0L1432.5,0C1425,0,1410,0,1395,0C1380,0,1365,0,1350,0C1335,0,1320,0,1305,0C1290,0,1275,0,1260,0C1245,0,1230,0,1215,0C1200,0,1185,0,1170,0C1155,0,1140,0,1125,0C1110,0,1095,0,1080,0C1065,0,1050,0,1035,0C1020,0,1005,0,990,0C975,0,960,0,945,0C930,0,915,0,900,0C885,0,870,0,855,0C840,0,825,0,810,0C795,0,780,0,765,0C750,0,735,0,720,0C705,0,690,0,675,0C660,0,645,0,630,0C615,0,600,0,585,0C570,0,555,0,540,0C525,0,510,0,495,0C480,0,465,0,450,0C435,0,420,0,405,0C390,0,375,0,360,0C345,0,330,0,315,0C300,0,285,0,270,0C255,0,240,0,225,0C210,0,195,0,180,0C165,0,150,0,135,0C120,0,105,0,90,0C75,0,60,0,45,0C30,0,15,0,8,0L0,0Z"></path></svg>